<svg xmlns="http://www.w3.org/2000/svg" version="1.1" xmlns:xlink="http://www.w3.org/1999/xlink" xmlns:svgjs="http://svgjs.dev/svgjs" viewBox="0 0 600 600" opacity="1"><path d="M610.3293690481602 417.66468683116386C612.4251738984206 364.6706784490024 625.1497222382643 143.41317621104668 611.2275624075352 92.51496759288261C597.305402576806 41.61675897471855 558.6826405325352 103.59280267589043 526.7964100637852 112.27543512217949C494.9101795950352 120.95806756846855 452.84430740265236 132.78441237641127 419.9101795950352 144.610762270617C386.976051787418 156.43711216482274 359.7305633027175 168.2634722315545 329.19164321808205 183.23353448741386C298.6527231334466 198.20359674327324 263.622770130517 216.91616693370293 236.67665908722267 234.43113580577324C209.7305480439284 251.94610467784355 185.17964726674742 269.91017531586436 167.51497695831642 288.32334771983574C149.85030664988543 306.7365201238071 124.55091140655861 337.4251391016717 130.68863723663674 344.91017022960136C136.82636306671486 352.39520135753105 183.2335489391107 336.5269457422967 204.34133193878517 333.23353448741386C225.44911493845964 329.94012323253105 233.0838398733555 329.94012323253105 257.3353352346836 325.1497027003045C281.58683059601174 320.3592821680779 320.8083856700677 308.83233006033055 349.8503041067539 304.4910112940545C378.89222254344014 300.1496925277784 407.3353454072097 298.50298944346855 431.5868458548008 299.10179010264824C455.8383463023919 299.7005907618279 477.9940368134597 303.14369582367686 495.3593067923008 308.0838152491326C512.7245767711419 313.02393467458836 525.1497273245274 321.5568784001743 535.7784657278477 328.7425066553826C546.407204131168 335.9281349105909 551.646711170556 341.91614658865086 559.1317372122227 351.1975847803826C566.6167632538893 360.47902297211436 574.101789295556 374.5508969548618 580.6886219778477 384.43113580577324C587.2754546601393 394.3113746566847 593.7126087942539 404.9400927149529 598.6527333059727 410.47901788585136C603.5928578176914 416.0179430567498 608.2335641978998 470.65869521332536 610.3293690481602 417.66468683116386C612.4251738984206 364.6706784490024 625.1497222382643 143.41317621104668 611.2275624075352 92.51496759288261 " fill="url(&quot;#SvgjsLinearGradient1003&quot;)" stroke-width="0" stroke="hsl(340, 45%, 30%)" fill-opacity="0.95"></path><defs><linearGradient id="SvgjsLinearGradient1003" gradientTransform="rotate(210, 0.5, 0.5)"><stop stop-color="hsl(162, 100%, 58%)" offset="0"></stop><stop stop-color="hsl(270, 73%, 53%)" offset="1"></stop></linearGradient><linearGradient id="SvgjsLinearGradient1004"><stop stop-color="hsl(162, 100%, 58%)" offset="0"></stop><stop stop-color="hsl(270, 73%, 53%)" offset="1"></stop></linearGradient></defs><path d="M1483.0504386802834 542.8991208260633C1485.146243530544 489.9051124439019 1497.8707918703878 268.6476102059461 1483.9486320396584 217.74940158778202C1470.0264722089294 166.85119296961795 1431.4037101646575 228.82723667078983 1399.517479695908 237.5098691170789C1367.631249227158 246.19250156336795 1325.565377034775 258.0188463713107 1292.631249227158 269.8451962655164C1259.6971214195407 281.67154615972214 1232.4516329348403 293.4979062264539 1201.9127128502048 308.46796848231327C1171.3737927655693 323.43803073817264 1136.3438397626398 342.15060092860233 1109.3977287193454 359.66556980067264C1082.4516176760512 377.18053867274295 1057.90071689887 395.14460931076377 1040.2360465904392 413.55778171473514C1022.5713762820083 431.9709541187065 997.2719810386814 462.6595730965711 1003.4097068687595 470.14460422450077C1009.5474326988376 477.62963535243045 1055.9546185712334 461.7613797371961 1077.062401570908 458.46796848231327C1098.1701845705823 455.17455722743045 1105.8049095054782 455.17455722743045 1130.0564048668064 450.3841366952039C1154.3079002281345 445.59371616297733 1193.5294553021904 434.06676405522995 1222.5713737388767 429.7254452889539C1251.613292175563 425.38412652267783 1280.0564150393325 423.73742343836795 1304.3079154869235 424.33622409754764C1328.5594159345146 424.93502475672733 1350.7151064455823 428.37812981857627 1368.0803764244235 433.318249244032C1385.4456464032646 438.25836866948777 1397.87079695665 446.79131239507376 1408.4995353599704 453.976940650282C1419.1282737632907 461.1625689054903 1424.367780802679 467.1505805835503 1431.852806844345 476.432018775282C1439.337832886012 485.7134569670137 1446.8228589276794 499.78533094976126 1453.4096916099709 509.66556980067264C1459.9965242922628 519.545808651584 1466.4336784263771 530.1745267098523 1471.3738029380959 535.7134518807508C1476.3139274498146 541.2523770516492 1480.954633830023 595.8931292082248 1483.0504386802834 542.8991208260633C1485.146243530544 489.9051124439019 1497.8707918703878 268.6476102059461 1483.9486320396584 217.74940158778202 " fill-opacity="1" fill="url(&quot;#SvgjsLinearGradient1004&quot;)" opacity="1" stroke-opacity="1" stroke-width="0" stroke="hsl(340, 45%, 30%)" transform="matrix(0.9476249999999999,0,0,0.9476249999999999,-698.30812154207,71.26283426382128)"></path></svg>