<svg xmlns="http://www.w3.org/2000/svg" version="1.1" xmlns:xlink="http://www.w3.org/1999/xlink" xmlns:svgjs="http://svgjs.dev/svgjs" viewBox="0 0 800 800" opacity="1"><defs><linearGradient x1="50%" y1="0%" x2="50%" y2="100%" id="uundulate-grad"><stop stop-color="hsl(162, 100%, 58%)" stop-opacity="1" offset="45%"></stop><stop stop-color="hsl(270, 73%, 53%)" stop-opacity="1" offset="100%"></stop></linearGradient></defs><g stroke-width="3" stroke="url(#uundulate-grad)" fill="none"><path d="M806.6848560063402 269.2830090344062C843.726869134779 396.33121078377803 800.0644483492129 620.1952752816935 717.9945845806035 724.0119105833564C635.924720811994 827.8285458850191 520.5976085591124 805.082865289522 412.74950991701576 767.6028584823887C304.90141127491904 730.1228516752553 287.23543251085357 697.161492507697 200.32371109853898 544.1078779091152C113.41198968622444 391.0542633105333 -75.23283837575241 122.51370335143321 -4.426752862094645 32.94550840919476C66.37933265156312 -56.62268653304375 371.21133638317133 64.9435628894521 540.1929215640954 114.18054218637099C709.1745067450197 163.41752148328987 769.6428428779013 142.23480728503438 806.6848560063402 269.2830090344062C843.726869134779 396.33121078377803 800.0644483492129 620.1952752816935 717.9945845806035 724.0119105833564 "></path><path d="M772.7944996586439 280.17610178739847C806.7496783597128 396.6369533909892 766.7257926396107 601.8456791807452 691.4950841850518 697.0109282072694C616.2643757304932 792.1761772337939 510.54785616535173 771.3259700212548 411.68709907676316 736.9692971147158C312.8263419881746 702.6126242081768 296.63252812111443 672.3980449712484 216.96345015982615 532.0988982558816C137.29437219853776 391.799751540515 -35.63005352494099 145.6375715780065 29.275524862578607 63.53339288095458C94.18110325009826 -18.570785816097384 373.6104400040724 92.86494282119043 528.5102264199195 137.99884051003278C683.4100128357666 183.13273819887513 738.8393209575747 163.7152501838076 772.7944996586439 280.17610178739847C806.7496783597128 396.6369533909892 766.7257926396107 601.8456791807452 691.4950841850518 697.0109282072694 "></path><path d="M738.9040212406348 291.0691945403905C769.7723655143341 396.9426959982004 733.3870148596957 583.4960830797967 664.9954617191878 670.0099458311824C596.6039085786799 756.5238085825681 500.4979817012785 737.569074752987 410.62456616619806 706.3357357470428C320.7511506311175 675.1023967410983 306.0295016610628 647.6345974347996 233.6030671508007 520.0899186026481C161.17663264053857 392.54523977049666 3.972609255557927 168.76143980457977 62.97768051693936 94.1212773527144C121.98275177832085 19.48111490084898 376.009421554661 120.78632275292881 516.827409205431 161.81713883369457C657.6453968562012 202.84795491446027 708.035676966936 185.19569308258076 738.9040212406348 291.0691945403905C769.7723655143341 396.9426959982004 733.3870148596957 583.4960830797967 664.9954617191878 670.0099458311824 "></path><path d="M705.0136343753605 301.9622872933828C732.7951442216897 397.2484386054116 700.0483286325152 565.1464869788482 638.4959308060581 643.0089634550953C576.9435329796011 720.8714399313426 490.4481987899396 703.8121794847196 409.56212480836734 675.7021743793697C328.67605082679484 647.5921692740197 315.42656675374565 622.8711498983508 250.24277569450965 508.08093894941453C185.05898463527382 393.2907280004781 43.57536358879116 191.88530803115304 96.67992772403448 124.70916182447417C149.7844918592778 57.53301561779534 378.40849465798397 148.7077026846672 505.14468354367705 185.63543715735636C631.8808724293701 222.56317163004553 677.2321245290315 206.67613598135392 705.0136343753605 301.9622872933828C732.7951442216897 397.2484386054116 700.0483286325152 565.1464869788482 638.4959308060581 643.0089634550953 "></path><path d="M671.1232475100861 312.855380046375C695.8179229290453 397.5541812126229 666.7096424053348 546.7968908778998 611.9963998929284 616.0079810790085C557.283157380522 685.2190712801171 480.3984158786009 670.0552842164523 408.4996834505365 645.0686130116967C336.60095102247215 620.0819418069412 324.8236318464284 598.1077023619023 266.8824842382187 496.07195929618103C208.941336630009 394.0362162304598 83.17811792202446 215.00917625772632 130.3821749311296 155.297046296234C177.58623194023482 95.58491633474165 380.8075677613069 176.62908261640553 493.4619578819229 209.45373548101816C606.116348002539 242.2783883456308 646.4285720911269 228.15657888012709 671.1232475100861 312.855380046375C695.8179229290453 397.5541812126229 666.7096424053348 546.7968908778998 611.9963998929284 616.0079810790085 "></path><path d="M637.2328301272335 323.7484575405781C658.8406711188229 397.859908561045 633.3709256605761 528.4472795181623 585.4968384622206 589.0069834441324C537.622751263865 649.5666873701024 470.348602449684 636.2983736893957 407.43721157512766 614.4350363852345C344.52582070057133 592.5716990810736 334.220666421533 573.3442395666643 283.52216226434956 484.06296438415836C232.82365810716607 394.7816892016523 122.78084173767957 238.13302922551054 164.0843916206466 185.88491550920475C205.38794150361366 133.63680179289895 383.20661034705176 204.55044728935485 481.77920170259085 233.2720185458909C580.3517930581299 261.9935898024269 615.6249891356442 249.63700652011119 637.2328301272335 323.7484575405781C658.8406711188229 397.859908561045 633.3709256605761 528.4472795181623 585.4968384622206 589.0069834441324 "></path><path d="M603.342412744381 334.64151977599215C621.8634193086004 398.1656206506781 600.0322089158174 510.0976528996358 558.9972770315127 562.0059705504673C517.962345147208 613.9142882012986 460.2987890207671 602.5414479035501 406.3747396997188 583.8014444999834C352.4506903786705 565.0614410964167 343.6177009966377 548.5807615126375 300.1618402904804 472.05395421334674C256.70597958432313 395.5271469140557 162.38356555333473 261.2568669345057 197.78660831016361 216.47276946338644C233.1896510669925 171.6886719922672 385.6056529327966 232.4717967035151 470.0964455232586 257.09028635197456C554.5872381137208 281.708776000434 584.8214061801616 271.1174189013062 603.342412744381 334.64151977599215C621.8634193086004 398.1656206506781 600.0322089158174 510.0976528996358 558.9972770315127 562.0059705504673 "></path><path d="M569.4520563966846 345.53459727019526C584.8862285335342 398.4713479991002 566.693553206215 491.7480415398984 532.4977766359611 535.0049729155912C498.30200006570715 578.261904291284 450.2490366270065 568.7845373764935 405.3123288594662 553.1678678735213C360.37562109192595 537.5511983705492 353.0147966068986 523.8172987173998 316.80157935176754 460.04495930132407C280.5883620966365 396.27261988524833 201.98635040414615 284.3807199022899 231.48888603483687 247.0606386763572C260.9914216655276 209.7405574504245 388.0047565536977 260.39316137646443 458.41375037908267 280.9085694168473C528.8227442044678 301.42397745723014 554.0178842598352 292.5978465412904 569.4520563966846 345.53459727019526C584.8862285335342 398.4713479991002 566.693553206215 491.7480415398984 532.4977766359611 535.0049729155912 "></path><path d="M535.5616390138321 356.4276900231875C547.9089767233118 398.77709060631145 533.3548364614564 473.3984454389499 505.99821520525325 508.00399053950423C478.64159394905005 542.6095356400585 440.1992231980895 535.0276421082261 404.2498569840573 522.5343065058483C368.30049077002514 510.0409709034707 362.41183118200325 499.05385118095114 333.4412573778984 448.03597964809046C304.47068357379356 397.0181081152299 241.58907421980126 307.5045881288632 265.19110272435387 277.648523148117C288.7931312289065 247.79245816737085 390.4037991394425 288.31454130820276 446.7309941997505 304.7268677405091C503.0581892600585 321.1391941728154 523.2143013043525 314.07828944006354 535.5616390138321 356.4276900231875C547.9089767233118 398.77709060631145 533.3548364614564 473.3984454389499 505.99821520525325 508.00399053950423 "></path><path d="M501.6712368897686 367.32075225860154C510.93174017187835 399.0828026959445 500.0161349754868 455.0488188204233 479.4986690333344 481.0029776458391C458.9812030911821 506.9571364712548 430.1494250279617 501.2707163223805 403.18740036743753 491.9007146205972C376.2253757069134 482.53071291881383 371.808881015897 474.29037312692424 350.08095066281834 436.02696947727884C328.3530203097397 397.76356582763333 281.1918132942455 330.6284258378583 298.89333467265993 308.23637710229866C316.5948560510744 285.8443283667391 392.8028569839764 316.235890722363 435.0482532792074 328.54513554659275C477.2936495744385 340.85438037082247 492.4107336076589 335.5587018212586 501.6712368897686 367.32075225860154C510.93174017187835 399.0828026959445 500.0161349754868 455.0488188204233 479.4986690333344 481.0029776458391 "></path><path d="M467.78081950691603 378.2138450115938C473.9544883616559 399.38854530315575 466.6774182307282 436.69922271947496 452.9991076026266 454.0019952697521C439.320796974525 471.30476782002927 420.09961159904475 467.51382105411307 402.12492849202863 461.2671532529242C384.15024538501257 455.02048545173534 381.20591559100166 449.52692559047557 366.7206286889492 424.01798982404523C352.2353417868968 398.50905405761495 320.79453710990066 353.75229406443157 332.59555136217693 338.8242615740585C344.3965656144532 323.8962290836854 395.20189956972126 344.1572706541014 423.36549709987526 352.36343387025454C451.52909463002925 360.56959708640767 461.60715065217624 357.0391447200318 467.78081950691603 378.2138450115938C473.9544883616559 399.38854530315575 466.6774182307282 436.69922271947496 452.9991076026266 454.0019952697521 "></path><path d="M433.8904021240635 389.1069225057969C436.9772365514334 399.6942726515779 433.3387014859696 418.3496113597375 426.4995461719188 427.00099763487606C419.660390857868 435.65238391001463 410.0497981701279 433.75691052705656 401.0624566166198 430.6335766264621C392.07511506311175 427.51024272586767 390.60295016610627 424.7634627952378 383.36030671508007 412.0089949120226C376.1176632640539 399.2545270288075 360.39726092555577 376.8761470322158 366.29776805169394 369.41213078702924C372.1982751778321 361.9481145418427 397.6009421554661 372.0786353270507 411.6827409205431 376.18171693512727C425.7645396856201 380.28479854320386 430.80356769669356 378.5195723600159 433.8904021240635 389.1069225057969C436.9772365514334 399.6942726515779 433.3387014859696 418.3496113597375 426.4995461719188 427.00099763487606 "></path></g></svg>